<mxfile host="app.diagrams.net" agent="Mozilla/5.0 (X11; Ubuntu; Linux x86_64; rv:137.0) Gecko/20100101 Firefox/137.0" version="26.2.13">
  <diagram name="Page-1" id="abOVgPqE6UOLV8Zt-MQ-">
    <mxGraphModel dx="1428" dy="790" grid="1" gridSize="10" guides="1" tooltips="1" connect="1" arrows="1" fold="1" page="1" pageScale="1" pageWidth="850" pageHeight="1100" math="0" shadow="0">
      <root>
        <mxCell id="0" />
        <mxCell id="1" parent="0" />
        <mxCell id="i2tidNXk0LauM3Mvuwf3-16" value="Kernel buffer cache" style="rounded=0;whiteSpace=wrap;html=1;" vertex="1" parent="1">
          <mxGeometry x="320" y="520" width="120" height="60" as="geometry" />
        </mxCell>
        <mxCell id="i2tidNXk0LauM3Mvuwf3-11" value="Make flushing automatic on each I/O call&lt;br&gt;&lt;br&gt;&lt;i&gt;setbuf(stream, NULL)&lt;/i&gt;" style="text;html=1;align=center;verticalAlign=middle;whiteSpace=wrap;rounded=0;fillColor=#fff2cc;strokeColor=#d6b656;dashed=1;" vertex="1" parent="1">
          <mxGeometry x="510" y="230" width="290" height="60" as="geometry" />
        </mxCell>
        <mxCell id="i2tidNXk0LauM3Mvuwf3-8" value="" style="endArrow=none;html=1;rounded=0;strokeWidth=4;" edge="1" parent="1">
          <mxGeometry width="50" height="50" relative="1" as="geometry">
            <mxPoint x="40" y="430" as="sourcePoint" />
            <mxPoint x="800" y="430" as="targetPoint" />
          </mxGeometry>
        </mxCell>
        <mxCell id="i2tidNXk0LauM3Mvuwf3-20" style="edgeStyle=orthogonalEdgeStyle;rounded=0;orthogonalLoop=1;jettySize=auto;html=1;exitX=0.5;exitY=1;exitDx=0;exitDy=0;entryX=0.5;entryY=0;entryDx=0;entryDy=0;" edge="1" parent="1" source="i2tidNXk0LauM3Mvuwf3-1" target="i2tidNXk0LauM3Mvuwf3-4">
          <mxGeometry relative="1" as="geometry" />
        </mxCell>
        <mxCell id="i2tidNXk0LauM3Mvuwf3-1" value="User data" style="rounded=0;whiteSpace=wrap;html=1;" vertex="1" parent="1">
          <mxGeometry x="320" y="60" width="120" height="60" as="geometry" />
        </mxCell>
        <mxCell id="i2tidNXk0LauM3Mvuwf3-10" style="edgeStyle=orthogonalEdgeStyle;rounded=0;orthogonalLoop=1;jettySize=auto;html=1;exitX=1;exitY=0.5;exitDx=0;exitDy=0;entryX=1;entryY=0;entryDx=0;entryDy=0;curved=1;dashed=1;fillColor=#fff2cc;strokeColor=#d6b656;" edge="1" parent="1" source="i2tidNXk0LauM3Mvuwf3-2" target="i2tidNXk0LauM3Mvuwf3-6">
          <mxGeometry relative="1" as="geometry">
            <Array as="points">
              <mxPoint x="520" y="190" />
              <mxPoint x="520" y="400" />
            </Array>
          </mxGeometry>
        </mxCell>
        <mxCell id="i2tidNXk0LauM3Mvuwf3-2" value="&lt;i&gt;stdio &lt;/i&gt;library calls &lt;i&gt;printf(), fputc(), &lt;/i&gt;etc." style="rounded=0;whiteSpace=wrap;html=1;" vertex="1" parent="1">
          <mxGeometry x="320" y="160" width="120" height="60" as="geometry" />
        </mxCell>
        <mxCell id="i2tidNXk0LauM3Mvuwf3-7" style="edgeStyle=orthogonalEdgeStyle;rounded=0;orthogonalLoop=1;jettySize=auto;html=1;exitX=0.5;exitY=1;exitDx=0;exitDy=0;entryX=0.5;entryY=0;entryDx=0;entryDy=0;" edge="1" parent="1" source="i2tidNXk0LauM3Mvuwf3-4" target="i2tidNXk0LauM3Mvuwf3-6">
          <mxGeometry relative="1" as="geometry" />
        </mxCell>
        <mxCell id="i2tidNXk0LauM3Mvuwf3-4" value="&lt;i&gt;stdio &lt;/i&gt;buffer" style="rounded=0;whiteSpace=wrap;html=1;" vertex="1" parent="1">
          <mxGeometry x="320" y="260" width="120" height="60" as="geometry" />
        </mxCell>
        <mxCell id="i2tidNXk0LauM3Mvuwf3-18" style="edgeStyle=orthogonalEdgeStyle;rounded=0;orthogonalLoop=1;jettySize=auto;html=1;exitX=0.5;exitY=1;exitDx=0;exitDy=0;entryX=0.5;entryY=0;entryDx=0;entryDy=0;" edge="1" parent="1" source="i2tidNXk0LauM3Mvuwf3-6" target="i2tidNXk0LauM3Mvuwf3-16">
          <mxGeometry relative="1" as="geometry" />
        </mxCell>
        <mxCell id="i2tidNXk0LauM3Mvuwf3-6" value="I/O system calls &lt;i&gt;write()&lt;/i&gt;, etc." style="rounded=1;whiteSpace=wrap;html=1;" vertex="1" parent="1">
          <mxGeometry x="320" y="400" width="120" height="60" as="geometry" />
        </mxCell>
        <mxCell id="i2tidNXk0LauM3Mvuwf3-14" style="edgeStyle=orthogonalEdgeStyle;rounded=0;orthogonalLoop=1;jettySize=auto;html=1;exitX=1;exitY=0.5;exitDx=0;exitDy=0;entryX=0;entryY=0;entryDx=0;entryDy=0;curved=1;dashed=1;fillColor=#fff2cc;strokeColor=#d6b656;" edge="1" parent="1" source="i2tidNXk0LauM3Mvuwf3-12" target="i2tidNXk0LauM3Mvuwf3-6">
          <mxGeometry relative="1" as="geometry">
            <Array as="points">
              <mxPoint x="280" y="260" />
              <mxPoint x="280" y="400" />
            </Array>
          </mxGeometry>
        </mxCell>
        <mxCell id="i2tidNXk0LauM3Mvuwf3-12" value="To force buffer flush&lt;br&gt;&lt;br&gt;&lt;i&gt;fflush()&lt;/i&gt;" style="text;html=1;align=center;verticalAlign=middle;whiteSpace=wrap;rounded=0;fillColor=#fff2cc;strokeColor=#d6b656;dashed=1;" vertex="1" parent="1">
          <mxGeometry x="110" y="220" width="160" height="60" as="geometry" />
        </mxCell>
        <mxCell id="i2tidNXk0LauM3Mvuwf3-17" style="edgeStyle=orthogonalEdgeStyle;rounded=0;orthogonalLoop=1;jettySize=auto;html=1;exitX=1;exitY=0.5;exitDx=0;exitDy=0;entryX=0.25;entryY=0;entryDx=0;entryDy=0;curved=1;fillColor=#fff2cc;strokeColor=#d6b656;dashed=1;" edge="1" parent="1" source="i2tidNXk0LauM3Mvuwf3-15" target="i2tidNXk0LauM3Mvuwf3-19">
          <mxGeometry relative="1" as="geometry" />
        </mxCell>
        <mxCell id="i2tidNXk0LauM3Mvuwf3-15" value="&lt;i&gt;fsync()&lt;br&gt;fdatasync()&lt;br&gt;sync()&lt;/i&gt;" style="text;html=1;align=center;verticalAlign=middle;whiteSpace=wrap;rounded=0;fillColor=#fff2cc;strokeColor=#d6b656;dashed=1;" vertex="1" parent="1">
          <mxGeometry x="110.35" y="490" width="160" height="60" as="geometry" />
        </mxCell>
        <mxCell id="i2tidNXk0LauM3Mvuwf3-22" style="edgeStyle=orthogonalEdgeStyle;rounded=0;orthogonalLoop=1;jettySize=auto;html=1;exitX=0.5;exitY=1;exitDx=0;exitDy=0;" edge="1" parent="1" source="i2tidNXk0LauM3Mvuwf3-16" target="i2tidNXk0LauM3Mvuwf3-21">
          <mxGeometry relative="1" as="geometry" />
        </mxCell>
        <mxCell id="i2tidNXk0LauM3Mvuwf3-19" value="Kernel-initiated write" style="rounded=0;whiteSpace=wrap;html=1;" vertex="1" parent="1">
          <mxGeometry x="320" y="630" width="120" height="60" as="geometry" />
        </mxCell>
        <mxCell id="i2tidNXk0LauM3Mvuwf3-21" value="" style="shape=cylinder3;whiteSpace=wrap;html=1;boundedLbl=1;backgroundOutline=1;size=15;" vertex="1" parent="1">
          <mxGeometry x="350" y="730" width="60" height="50" as="geometry" />
        </mxCell>
        <mxCell id="i2tidNXk0LauM3Mvuwf3-24" style="edgeStyle=orthogonalEdgeStyle;rounded=0;orthogonalLoop=1;jettySize=auto;html=1;exitX=0;exitY=0.5;exitDx=0;exitDy=0;entryX=0.75;entryY=0;entryDx=0;entryDy=0;curved=1;dashed=1;fillColor=#fff2cc;strokeColor=#d6b656;" edge="1" parent="1" source="i2tidNXk0LauM3Mvuwf3-23" target="i2tidNXk0LauM3Mvuwf3-19">
          <mxGeometry relative="1" as="geometry">
            <Array as="points">
              <mxPoint x="430" y="520" />
              <mxPoint x="430" y="630" />
            </Array>
          </mxGeometry>
        </mxCell>
        <mxCell id="i2tidNXk0LauM3Mvuwf3-23" value="We can control kernel buffering here. There are different flags &lt;i&gt;O_SYNC, ODSYNC, O_RSYNC&lt;/i&gt; according to &lt;i&gt;synchronized I/O file integrity completion &lt;/i&gt;and &lt;i&gt;synchronized I/O data integrity completion&lt;/i&gt;&lt;br&gt;&lt;br&gt;&lt;div align=&quot;left&quot;&gt;&lt;i&gt;open(path, flags | O_SYNC, mode)&lt;/i&gt;&lt;/div&gt;" style="text;html=1;align=left;verticalAlign=middle;whiteSpace=wrap;rounded=0;fillColor=#fff2cc;strokeColor=#d6b656;dashed=1;" vertex="1" parent="1">
          <mxGeometry x="520" y="490" width="270" height="130" as="geometry" />
        </mxCell>
        <mxCell id="i2tidNXk0LauM3Mvuwf3-25" value="" style="endArrow=classic;startArrow=classic;html=1;rounded=0;" edge="1" parent="1">
          <mxGeometry width="50" height="50" relative="1" as="geometry">
            <mxPoint x="80" y="420" as="sourcePoint" />
            <mxPoint x="80" y="40" as="targetPoint" />
          </mxGeometry>
        </mxCell>
        <mxCell id="i2tidNXk0LauM3Mvuwf3-26" value="&lt;i&gt;User Memory&lt;/i&gt;" style="text;html=1;align=center;verticalAlign=middle;whiteSpace=wrap;rounded=0;rotation=-89;" vertex="1" parent="1">
          <mxGeometry x="10.35" y="190" width="100" height="30" as="geometry" />
        </mxCell>
        <mxCell id="i2tidNXk0LauM3Mvuwf3-27" value="" style="endArrow=classic;startArrow=classic;html=1;rounded=0;" edge="1" parent="1">
          <mxGeometry width="50" height="50" relative="1" as="geometry">
            <mxPoint x="80" y="680" as="sourcePoint" />
            <mxPoint x="80" y="440" as="targetPoint" />
          </mxGeometry>
        </mxCell>
        <mxCell id="i2tidNXk0LauM3Mvuwf3-28" value="&lt;i&gt;Kernel Memory&lt;/i&gt;" style="text;html=1;align=center;verticalAlign=middle;whiteSpace=wrap;rounded=0;rotation=-89;" vertex="1" parent="1">
          <mxGeometry x="10.350000000000001" y="535" width="100" height="30" as="geometry" />
        </mxCell>
      </root>
    </mxGraphModel>
  </diagram>
</mxfile>
